<?xml version="1.0" encoding="UTF-8"?>
<svg id="White" xmlns="http://www.w3.org/2000/svg" viewBox="0 0 846.02 132.47">
  <defs>
    <style>
      .cls-1 {
        fill-rule: evenodd;
      }

      .cls-1, .cls-2 {
        fill: #fff;
        stroke-width: 0px;
      }
    </style>
  </defs>
  <g>
    <path class="cls-1" d="M157.8,111.31v-18.78h41.89c2.81,0,4.21-.79,4.21-2.37,0-1.01-.4-1.76-1.19-2.27-.79-.5-2.02-1.01-3.67-1.51l-29.26-8.21c-8.49-2.3-12.74-9.82-12.74-22.56s5.9-19.86,17.71-19.86h49.88v18.78h-38.43c-3.45,0-5.18.79-5.18,2.38,0,1.15.54,2.01,1.62,2.59,1.08.58,2.66,1.12,4.75,1.62l25.48,6.8c5.69,1.51,9.72,4.01,12.09,7.5,2.38,3.49,3.56,8.51,3.56,15.06,0,6.91-1.39,12.11-4.16,15.6-2.77,3.49-7.5,5.24-14.2,5.24h-52.36Z"/>
    <path class="cls-1" d="M255.66,36.33c4.93-.97,11.53-1.46,19.81-1.46s14.88.49,19.81,1.46c4.93.97,9.12,2.88,12.58,5.72,3.45,2.84,5.85,6.75,7.18,11.71,1.33,4.97,2,11.55,2,19.76s-.67,14.79-2,19.76c-1.33,4.96-3.72,8.87-7.18,11.71-3.45,2.84-7.65,4.75-12.58,5.72-4.93.97-11.53,1.46-19.81,1.46s-14.88-.48-19.81-1.46c-4.93-.97-9.12-2.88-12.58-5.72-3.46-2.84-5.85-6.75-7.18-11.71-1.33-4.97-2-11.55-2-19.76s.67-14.79,2-19.76c1.33-4.96,3.72-8.87,7.18-11.71,3.45-2.84,7.65-4.75,12.58-5.72h0ZM262.46,58.2c-2.34,3.02-3.51,8.13-3.51,15.33s1.17,12.31,3.51,15.33c2.34,3.02,6.68,4.53,13.01,4.53s10.67-1.51,13.01-4.53c2.34-3.02,3.51-8.13,3.51-15.33s-1.17-12.31-3.51-15.33c-2.34-3.02-6.67-4.53-13.01-4.53s-10.67,1.51-13.01,4.53Z"/>
    <path class="cls-1" d="M392.17,111.31h-54.63c-3.74,0-6.66-1.04-8.74-3.13-2.09-2.09-3.13-5-3.13-8.74v-63.69h24.4v52.04c0,3.16,1.58,4.75,4.75,4.75h37.35v18.78Z"/>
    <path class="cls-1" d="M424.08,89.39c2.12,2.09,5.42,3.13,9.88,3.13s7.75-1.04,9.88-3.13c2.12-2.09,3.18-5.51,3.18-10.26v-43.4h24.4v45.34c0,11.37-3.11,19.4-9.34,24.07-6.23,4.68-15.6,7.01-28.12,7.01s-21.9-2.34-28.12-7.01c-6.22-4.68-9.34-12.71-9.34-24.07v-45.34h24.4v43.4c0,4.75,1.06,8.17,3.18,10.26Z"/>
    <path class="cls-1" d="M553.89,54.52h-32.6c-6.05,0-10.26,1.31-12.63,3.94-2.38,2.63-3.56,7.65-3.56,15.06s1.19,12.43,3.56,15.06c2.38,2.63,6.58,3.94,12.63,3.94h5.18c3.17,0,4.75-1.59,4.75-4.75v-16.41h24.4v28.07c0,3.74-1.04,6.66-3.13,8.74-2.09,2.09-5,3.13-8.74,3.13h-30.66c-12.16,0-20.71-2.97-25.64-8.91-4.93-5.94-7.39-15.56-7.39-28.88s2.46-22.94,7.39-28.88c4.93-5.94,13.48-8.91,25.64-8.91h40.81v18.78Z"/>
    <path class="cls-1" d="M630.76,35.74v18.35h-37.35c-3.16,0-4.75,1.58-4.75,4.75v5.61h41.24v16.62h-41.24v7.12c0,3.17,1.58,4.75,4.75,4.75h37.79v18.35h-55.06c-3.74,0-6.66-1.04-8.75-3.13-2.09-2.09-3.13-5-3.13-8.74v-51.82c0-3.74,1.05-6.66,3.13-8.75,2.09-2.09,5-3.13,8.75-3.13h54.62Z"/>
    <path class="cls-1" d="M722.31,35.74v62.94c0,.86-.05,1.69-.16,2.48-.11.79-.47,1.91-1.08,3.35-.61,1.44-1.46,2.68-2.54,3.72-1.08,1.04-2.7,1.96-4.86,2.75-2.16.79-4.75,1.19-7.77,1.19-3.53,0-6.62-.48-9.29-1.46-2.66-.97-5.04-2.97-7.13-5.99l-27.31-38.54c-.86-1.22-1.55-1.84-2.05-1.84-1.01,0-1.51.72-1.51,2.16v44.8h-18.78v-63.05c0-4.61,1.6-7.99,4.81-10.15,3.2-2.16,7.25-3.24,12.14-3.24,7.34,0,12.67,2.34,15.98,7.02l27.53,38.86c.86,1.22,1.55,1.84,2.05,1.84.79,0,1.19-.61,1.19-1.84v-45.02h18.78Z"/>
    <rect class="cls-2" x="733.1" y="35.74" width="24.4" height="75.57"/>
    <polygon class="cls-1" points="846.02 111.31 816.88 111.31 803.16 90.04 789.45 111.31 760.31 111.31 788.91 72.98 761.17 35.74 790.32 35.74 803.16 55.93 816.01 35.74 845.16 35.74 817.42 72.98 846.02 111.31"/>
  </g>
  <g>
    <path class="cls-1" d="M68.38,70.55l-27.75,5.05c-2.06.38-3.86-1.43-3.49-3.49L50.26,0,0,83.19l32.06-6c2.07-.39,3.89,1.43,3.5,3.5l-5.2,27.77c-.39,2.07,1.42,3.88,3.49,3.5l29.98-5.46c1.22-.22,2.18-1.18,2.41-2.4l5.63-30.05c.39-2.07-1.42-3.88-3.49-3.5Z"/>
    <path class="cls-1" d="M73.51,132.47l50.26-83.19-32.06,6c-2.07.39-3.89-1.43-3.5-3.5l5.2-27.77c.39-2.07-1.42-3.88-3.49-3.5l-29.98,5.46c-1.22.22-2.18,1.18-2.41,2.4l-5.63,30.05c-.39,2.07,1.42,3.88,3.49,3.5l27.75-5.05c2.06-.37,3.86,1.43,3.49,3.49l-13.12,72.12Z"/>
  </g>
</svg>